# xmcd CD database file
#
# Track frame offsets:
#	150
#	13695
#	32805
#	60440
#	89052
#	112847
#	151870
#	172860
#	220822
#	238717
#
# Disc length: 3498 seconds
#
# Revision: 1
# Processed by: cddbd v1.5.1PL0 Copyright (c) Steve Scherf et al.
# Submitted via: CDex 1.51
#
DISCID=750da80a
DTITLE=Iro Haarla and Pepa Päivinen - Yarra Yarra
DYEAR=2001
DGENRE=Jazz
TTITLE0=Fenix
TTITLE1=Avis Rara
TTITLE2=Sparkling eyes
TTITLE3=Like the Sand of the Ocean
TTITLE4=Lona Mosa
TTITLE5=Ready to Go
TTITLE6=Winter Twilight
TTITLE7=Invisible Storm
TTITLE8=Satin Ladder
TTITLE9=Yarra, Yarra
EXTD=YEAR: 2001
EXTT0=
EXTT1=
EXTT2=
EXTT3=
EXTT4=
EXTT5=
EXTT6=
EXTT7=
EXTT8=
EXTT9=
PLAYORDER=
